<svg id="图层_1" data-name="图层 1" xmlns="http://www.w3.org/2000/svg" xmlns:xlink="http://www.w3.org/1999/xlink" viewBox="0 0 40 40"><defs><style>.cls-1{fill:none;}.cls-2{fill:#fff;}.cls-3{fill:#5ea523;}.cls-4{clip-path:url(#clip-path);}.cls-5{fill:#5c9e33;}</style><clipPath id="clip-path"><rect class="cls-1" x="6.5" y="6.48" width="27" height="27.03"/></clipPath></defs><title>5</title><rect class="cls-2" x="0.5" y="0.5" width="39" height="39" rx="3.5" ry="3.5"/><path class="cls-3" d="M36,1a3,3,0,0,1,3,3V36a3,3,0,0,1-3,3H4a3,3,0,0,1-3-3V4A3,3,0,0,1,4,1H36m0-1H4A4,4,0,0,0,0,4V36a4,4,0,0,0,4,4H36a4,4,0,0,0,4-4V4a4,4,0,0,0-4-4Z"/><g class="cls-4"><path class="cls-5" d="M25.84,7.82a1,1,0,0,0-.79-.05,1.05,1.05,0,0,0-.64,1.33,1,1,0,0,0,.53.59,11.42,11.42,0,1,1-5-1.13,1,1,0,1,0,0-2.07,13.49,13.49,0,1,0,5.85,1.33Zm0,0"/></g><path class="cls-5" d="M23,13.17a1.07,1.07,0,0,0-.74-.3,1,1,0,0,0-.73.3l-5.9,5.9a1,1,0,0,0,.73,1.78h4.78l-4.49,4.48a1,1,0,0,0,0,1.46,1,1,0,0,0,1.45,0l6.26-6.26a1,1,0,0,0,.23-1.13,1,1,0,0,0-1-.64H18.86L23,14.64a1,1,0,0,0,.3-.73,1.07,1.07,0,0,0-.3-.74Zm0,0"/></svg>