<svg id="图层_1" data-name="图层 1" xmlns="http://www.w3.org/2000/svg" viewBox="0 0 40 40"><defs><style>.cls-1{fill:#fff;}.cls-2,.cls-3{fill:#17acd6;}.cls-3{stroke:#17acd6;stroke-miterlimit:10;stroke-width:0.4px;}</style></defs><title>1</title><rect class="cls-1" x="0.5" y="0.5" width="39" height="39" rx="3.5" ry="3.5"/><path class="cls-2" d="M36,1a3,3,0,0,1,3,3V36a3,3,0,0,1-3,3H4a3,3,0,0,1-3-3V4A3,3,0,0,1,4,1H36m0-1H4A4,4,0,0,0,0,4V36a4,4,0,0,0,4,4H36a4,4,0,0,0,4-4V4a4,4,0,0,0-4-4Z"/><path class="cls-3" d="M29.78,31a1.22,1.22,0,0,1-1.22,1.22H11.44A1.22,1.22,0,0,1,10.22,31V12.67a1.23,1.23,0,0,1,1.22-1.23H22.3a1.26,1.26,0,0,1,.86.36l6.26,6.26a1.23,1.23,0,0,1,.36.87ZM12.67,8.39a.61.61,0,0,1,.61-.61h4.89a.61.61,0,0,1,.61.61v1.83H12.67V8.39ZM30.28,17.2,24,10.94a2.42,2.42,0,0,0-1.72-.72H20V8.39a1.83,1.83,0,0,0-1.83-1.83H13.28a1.84,1.84,0,0,0-1.84,1.83v1.83A2.45,2.45,0,0,0,9,12.67V31a2.44,2.44,0,0,0,2.44,2.44H28.56A2.44,2.44,0,0,0,31,31V18.93a2.43,2.43,0,0,0-.72-1.73Zm0,0"/><path class="cls-2" d="M27.41,18.7h0l-4.89-4.89a1.83,1.83,0,0,0-2.59,2.6l4.88,4.89a1.84,1.84,0,0,0,2.6-2.6Zm-1,1.58a.61.61,0,0,1-.82,0l-4.63-4.63a.59.59,0,0,1,0-.82.63.63,0,0,1,.41-.17.58.58,0,0,1,.41.17l4.63,4.63A.59.59,0,0,1,26.39,20.28Z"/><path class="cls-2" d="M18.59,21.39a.62.62,0,0,0-.84,0c-.44.42-2.64,2.58-2.64,4.11a3.06,3.06,0,1,0,6.11,0C21.22,24,19,21.81,18.59,21.39Zm-.42,5.74a1.67,1.67,0,0,1-1.67-1.67,5.83,5.83,0,0,1,1.67-2.56,5.93,5.93,0,0,1,1.67,2.56A1.67,1.67,0,0,1,18.17,27.13Z"/></svg>