<svg id="图层_1" data-name="图层 1" xmlns="http://www.w3.org/2000/svg" xmlns:xlink="http://www.w3.org/1999/xlink" viewBox="0 0 40 40"><defs><style>.cls-1{fill:none;}.cls-2{fill:#fff;}.cls-3{fill:#efa34f;}.cls-4{clip-path:url(#clip-path);}</style><clipPath id="clip-path"><rect class="cls-1" x="8" y="6.9" width="24" height="26.2"/></clipPath></defs><title>3</title><rect class="cls-2" x="0.5" y="0.5" width="39" height="39" rx="3.5" ry="3.5"/><path class="cls-3" d="M36,1a3,3,0,0,1,3,3V36a3,3,0,0,1-3,3H4a3,3,0,0,1-3-3V4A3,3,0,0,1,4,1H36m0-1H4A4,4,0,0,0,0,4V36a4,4,0,0,0,4,4H36a4,4,0,0,0,4-4V4a4,4,0,0,0-4-4Z"/><g class="cls-4"><path class="cls-3" d="M31.07,24.48H28.73c-3.08,0-4.78,1.66-4.78,4.69a2.09,2.09,0,0,1-4.17,0V25.23a9.72,9.72,0,0,0,8.53-9.63v-3h.53a.91.91,0,1,0,0-1.81H25.4V7.84a.91.91,0,1,0-1.81,0v2.95h-10V7.84a.91.91,0,1,0-1.81,0v2.95H8.9a.91.91,0,0,0,0,1.81v3A9.71,9.71,0,0,0,18,25.27v3.9a3.9,3.9,0,0,0,7.79,0c0-2,.89-2.88,3-2.88h2.34a.91.91,0,1,0,0-1.81ZM10.71,15.6v-3H26.5v3a7.9,7.9,0,0,1-15.79,0Zm0,0"/></g></svg>